<?xml version="1.0" standalone="no"?>
<!DOCTYPE svg PUBLIC "-//W3C//DTD SVG 20010904//EN"
 "http://www.w3.org/TR/2001/REC-SVG-20010904/DTD/svg10.dtd">
<svg version="1.0" xmlns="http://www.w3.org/2000/svg"
 width="500.000000pt" height="500.000000pt" viewBox="0 0 500.000000 500.000000"
 preserveAspectRatio="xMidYMid meet">

<g transform="translate(0.000000,500.000000) scale(0.100000,-0.100000)"
fill="#000000" stroke="none">
<path d="M2050 2870 l0 -100 100 0 100 0 0 100 0 100 -100 0 -100 0 0 -100z"/>
<path d="M2760 2870 l0 -100 100 0 100 0 0 100 0 100 -100 0 -100 0 0 -100z"/>
<path d="M3003 1869 l-53 -40 0 -137 c0 -75 -5 -157 -11 -181 -40 -175 -198
-320 -371 -339 l-63 -7 -3 -197 -2 -198 425 0 425 0 0 535 0 535 -22 14 c-31
19 -187 56 -235 55 -28 0 -51 -10 -90 -40z"/>
<path d="M2050 1697 l5 -142 3 134 c1 74 -1 138 -5 142 -4 5 -6 -56 -3 -134z"/>
<path d="M1685 1295 c0 -291 1 -409 2 -262 2 148 2 386 0 530 -1 144 -2 24 -2
-268z"/>
<path d="M2090 1421 c0 -6 4 -13 10 -16 6 -3 7 1 4 9 -7 18 -14 21 -14 7z"/>
<path d="M2320 1195 c14 -8 30 -14 35 -14 6 0 -1 6 -15 14 -14 8 -29 14 -35
14 -5 0 1 -6 15 -14z"/>
</g>
</svg>
